<svg id="visual" viewBox="0 0 960 540" width="960" height="540" xmlns="http://www.w3.org/2000/svg" xmlns:xlink="http://www.w3.org/1999/xlink" version="1.1"><path d="M0 362L137 365L274 327L411 397L549 390L686 319L823 396L960 356L960 541L823 541L686 541L549 541L411 541L274 541L137 541L0 541Z" fill="#5601a9"></path><path d="M0 386L137 384L274 359L411 430L549 371L686 409L823 386L960 422L960 541L823 541L686 541L549 541L411 541L274 541L137 541L0 541Z" fill="#651fbc"></path><path d="M0 437L137 397L274 416L411 406L549 441L686 409L823 455L960 429L960 541L823 541L686 541L549 541L411 541L274 541L137 541L0 541Z" fill="#7434d0"></path><path d="M0 444L137 449L274 487L411 446L549 486L686 471L823 434L960 458L960 541L823 541L686 541L549 541L411 541L274 541L137 541L0 541Z" fill="#8347e4"></path><path d="M0 507L137 484L274 501L411 479L549 508L686 510L823 509L960 499L960 541L823 541L686 541L549 541L411 541L274 541L137 541L0 541Z" fill="#9159f9"></path></svg>